<svg width="464" height="101" viewBox="0 0 464 101" fill="none" xmlns="http://www.w3.org/2000/svg">
<path d="M139.401 89.2242V56.2534H160.361V58.7027L159.984 59.0795C158.446 58.4831 155.855 58.1846 152.212 58.1846H143.593V71.42H157.394L157.676 71.7497V73.3982H143.593V87.2931H152.683C154.317 87.2931 155.777 87.23 157.064 87.1047C158.351 86.9474 159.23 86.7909 159.701 86.6336L160.455 86.3982L160.832 86.775V89.2242H139.401Z" fill="white"/>
<path d="M172.327 66.8983V82.3004C172.327 83.9648 172.72 85.1895 173.505 85.9743C174.29 86.759 175.546 87.1518 177.273 87.1518C178.498 87.1518 179.691 86.9793 180.853 86.6337C182.046 86.288 182.925 85.9431 183.49 85.5974L184.338 85.0793V75.0939C184.338 73.4613 184.291 72.0011 184.197 70.7135C184.134 69.4258 184.072 68.5309 184.009 68.0287L183.867 67.3222L184.291 66.8983C184.982 66.8983 185.626 66.8671 186.222 66.8041C186.851 66.741 187.306 66.6787 187.588 66.6157L187.965 66.5215L188.389 66.8983V79.804C188.389 81.4366 188.452 83.0069 188.577 84.5141C188.735 85.9902 188.876 87.0735 189.001 87.7641L189.19 88.8003L188.813 89.2242C188.09 89.2242 187.384 89.2554 186.693 89.3184C186.034 89.3815 185.547 89.4438 185.233 89.5068L184.762 89.6481L184.338 89.2242L184.527 86.8221L184.338 86.6337C184.087 86.8532 183.71 87.1358 183.208 87.4815C182.706 87.7952 181.669 88.2351 180.099 88.8003C178.561 89.3344 176.975 89.601 175.342 89.601C172.862 89.601 171.056 89.0199 169.925 87.8583C168.826 86.6648 168.277 84.9221 168.277 82.6301V75.0939C168.277 73.4613 168.214 72.0011 168.088 70.7135C167.963 69.4258 167.837 68.5309 167.712 68.0287L167.476 67.3222L167.9 66.8983C168.622 66.8983 169.313 66.8671 169.972 66.8041C170.663 66.741 171.166 66.6787 171.48 66.6157L171.904 66.5215L172.327 66.8983Z" fill="white"/>
<path d="M210.349 66.5686C210.632 67.6359 210.773 68.9077 210.773 70.3838L210.349 70.8077C209.941 70.4939 209.266 70.3367 208.324 70.3367C207.131 70.3367 205.953 70.6664 204.791 71.3258C203.63 71.954 202.75 72.5816 202.154 73.2098L201.306 74.199V89.2242H197.255V75.0939C197.255 73.4613 197.192 72.0011 197.067 70.7135C196.942 69.4258 196.815 68.5309 196.69 68.0287L196.455 67.3222L196.879 66.8983C197.601 66.8983 198.292 66.8671 198.951 66.8041C199.642 66.741 200.144 66.6787 200.458 66.6157L200.882 66.5215L201.306 66.8983L201.118 71.7968L201.306 71.9381C201.4 71.7809 201.526 71.5924 201.683 71.3729C201.871 71.1214 202.264 70.6975 202.86 70.1012C203.457 69.4729 204.069 68.9236 204.697 68.4526C205.357 67.9816 206.189 67.5577 207.194 67.1809C208.23 66.7729 209.282 66.5686 210.349 66.5686Z" fill="white"/>
<path d="M217.48 86.3982C215.344 84.2627 214.277 81.4837 214.277 78.0613C214.277 74.6389 215.344 71.8751 217.48 69.7715C219.646 67.636 222.457 66.5686 225.911 66.5686C229.396 66.5686 232.206 67.636 234.342 69.7715C236.509 71.8751 237.592 74.6389 237.592 78.0613C237.592 81.5156 236.509 84.3098 234.342 86.4453C232.206 88.5489 229.396 89.6011 225.911 89.6011C222.457 89.6011 219.646 88.5337 217.48 86.3982ZM218.751 78.0613C218.751 81.1388 219.395 83.5562 220.683 85.3149C222.001 87.0736 223.744 87.9525 225.911 87.9525C228.077 87.9525 229.82 87.0736 231.139 85.3149C232.458 83.5562 233.117 81.1388 233.117 78.0613C233.117 75.0157 232.458 72.6135 231.139 70.8548C229.82 69.065 228.077 68.1701 225.911 68.1701C223.775 68.1701 222.049 69.065 220.73 70.8548C219.411 72.6135 218.751 75.0157 218.751 78.0613Z" fill="white"/>
<path d="M248.683 101H244.632V79.9453C244.632 77.3076 244.569 74.9366 244.444 72.833C244.318 70.7294 244.192 69.2845 244.067 68.4997L243.832 67.3222L244.255 66.8983C244.978 66.8983 245.668 66.8671 246.328 66.8041C247.018 66.741 247.521 66.6787 247.835 66.6157L248.259 66.5215L248.683 66.8983L248.495 69.2062L248.683 69.3947C248.903 69.1751 249.201 68.9077 249.578 68.5939C249.986 68.2802 250.85 67.8715 252.168 67.3693C253.487 66.8352 254.869 66.5686 256.313 66.5686C259.265 66.5686 261.667 67.5736 263.52 69.583C265.373 71.5924 266.299 74.3403 266.299 77.8257C266.299 81.4366 265.279 84.3098 263.237 86.4453C261.228 88.5489 258.48 89.601 254.995 89.601C252.42 89.601 250.316 89.0518 248.683 87.9525V101ZM261.824 78.391C261.824 75.3453 261.149 73.0214 259.799 71.42C258.449 69.8185 256.674 69.0178 254.476 69.0178C253.44 69.0178 252.435 69.1903 251.462 69.5359C250.52 69.8816 249.813 70.2265 249.342 70.5722L248.683 71.0903V83.6663C248.683 84.9539 249.232 85.9902 250.332 86.775C251.462 87.5286 252.844 87.9054 254.476 87.9054C256.737 87.9054 258.527 87.0735 259.846 85.409C261.165 83.7445 261.824 81.4054 261.824 78.391Z" fill="white"/>
<path d="M291.657 84.7497L292.41 85.5504C292.348 85.6446 292.238 85.7859 292.081 85.9743C291.955 86.1627 291.61 86.4924 291.045 86.9634C290.511 87.4344 289.914 87.8424 289.255 88.188C288.627 88.5337 287.763 88.8634 286.664 89.1772C285.566 89.4598 284.403 89.6011 283.179 89.6011C279.599 89.6011 276.758 88.5489 274.653 86.4453C272.55 84.3098 271.498 81.5156 271.498 78.0613C271.498 74.5758 272.566 71.7968 274.7 69.7244C276.867 67.6208 279.834 66.5686 283.603 66.5686C286.492 66.5686 288.705 67.1969 290.244 68.4527C291.783 69.7084 292.552 71.5142 292.552 73.8693C292.552 74.4657 292.505 75.0468 292.41 75.612C292.316 76.1772 292.222 76.6012 292.128 76.8838L291.987 77.3077L291.61 77.6845H275.972C276.004 80.8243 276.742 83.2112 278.186 84.8438C279.631 86.4453 281.719 87.246 284.45 87.246C285.832 87.246 287.12 87.0417 288.313 86.6337C289.537 86.2257 290.401 85.8018 290.903 85.362L291.657 84.7497ZM283.508 68.1701C281.311 68.1701 279.552 68.8766 278.233 70.2896C276.946 71.7026 276.208 73.6649 276.019 76.1772L288.595 75.7533C288.784 75.0939 288.878 74.3091 288.878 73.3983C288.878 71.7026 288.423 70.415 287.512 69.536C286.602 68.6251 285.267 68.1701 283.508 68.1701Z" fill="white"/>
<path d="M139.4 35.7147V15.9322C139.4 13.4199 139.29 11.112 139.07 9.00835C138.882 6.90474 138.677 5.42866 138.458 4.58084L138.128 3.30911L138.693 2.7439H141.19L163.092 24.2691V2.7439H166.718V35.7147H164.552L142.65 14.1424V35.7147H139.4Z" fill="white"/>
<path d="M175.404 32.9359C173.143 30.7692 172.013 27.9432 172.013 24.4577C172.013 20.9722 173.143 18.1621 175.404 16.0266C177.665 13.8599 180.616 12.7766 184.259 12.7766C187.902 12.7766 190.837 13.8599 193.067 16.0266C195.328 18.1621 196.458 20.9722 196.458 24.4577C196.458 27.9432 195.328 30.7692 193.067 32.9359C190.806 35.1025 187.87 36.1859 184.259 36.1859C180.616 36.1859 177.665 35.1025 175.404 32.9359ZM179.784 24.4577C179.784 27.5033 180.192 29.8432 181.009 31.4758C181.826 33.1083 182.909 33.925 184.259 33.925C185.609 33.925 186.677 33.1083 187.462 31.4758C188.279 29.8432 188.686 27.5033 188.686 24.4577C188.686 21.4432 188.279 19.1193 187.462 17.4867C186.677 15.8541 185.609 15.0375 184.259 15.0375C182.909 15.0375 181.826 15.8541 181.009 17.4867C180.192 19.1193 179.784 21.4432 179.784 24.4577Z" fill="white"/>
<path d="M206.61 34.7255L201.476 21.5843C200.849 20.014 200.189 18.5698 199.498 17.251C198.807 15.901 198.258 14.959 197.849 14.4249L197.284 13.6242L197.661 13.2474C198.98 13.2474 200.236 13.2162 201.429 13.1532C202.623 13.0902 203.486 13.0279 204.02 12.9648L204.82 12.8706L211.509 29.6857L214.759 21.5843C215.418 19.9198 215.952 18.4285 216.36 17.1097C216.769 15.7597 217.004 14.8329 217.067 14.3307L217.161 13.6242L217.585 13.2474C218.119 13.2474 218.7 13.2162 219.328 13.1532C219.956 13.0902 220.458 13.0279 220.835 12.9648L221.353 12.8706L221.777 13.2474L212.545 35.7147H207.599L206.61 34.7255Z" fill="white"/>
<path d="M270.897 13.2474L259.828 39.153C259.2 40.6291 258.619 42.0574 258.085 43.4392C257.551 44.8211 257.19 45.8254 257.002 46.4537L256.672 47.4428L256.248 47.8196C255.243 47.8196 254.864 47.7566 253.891 47.4428C252.917 47.1602 252.195 46.8776 251.724 46.595L251.018 46.1711V45.6059C251.3 45.3863 251.677 45.0566 252.148 44.6168C252.619 44.1769 253.537 43.3269 254.503 41.7907C255.512 40.1893 255.95 38.7603 256.672 37.2219L257.332 35.7617L251.02 21.5843C250.329 20.0459 249.622 18.6169 248.9 17.2981C248.178 15.9793 247.613 15.0373 247.205 14.472L246.64 13.6242L247.016 13.2474C248.335 13.2474 249.607 13.2162 250.832 13.1532C252.056 13.0902 252.951 13.0279 253.516 12.9648L254.364 12.8706L260.676 28.3198L263.737 21.5843C264.459 19.9517 265.04 18.4756 265.48 17.1568C265.919 15.838 266.171 14.9271 266.234 14.4249L266.328 13.6242L266.705 13.2474C267.27 13.2474 267.866 13.2162 268.495 13.1532C269.122 13.0902 269.625 13.0279 270.002 12.9648L270.52 12.8706L270.897 13.2474Z" fill="white"/>
<path d="M333.888 31.7112V20.8395C335.176 20.8395 335.663 20.7924 336.761 20.6982C337.892 20.604 338.692 20.5098 339.163 20.4156L339.917 20.2743L340.529 20.8395V31.1459C340.435 31.2713 340.278 31.4597 340.058 31.7112C339.839 31.9307 339.352 32.3394 338.598 32.9358C337.844 33.501 337.013 34.0032 336.102 34.443C335.192 34.8829 333.966 35.2908 332.428 35.6676C330.921 36.0133 329.319 36.1858 327.624 36.1858C322.348 36.1858 318.14 34.6314 315 31.5227C311.892 28.4141 310.337 24.3003 310.337 19.1822C310.337 14.0953 311.892 10.0135 315 6.93596C318.14 3.82728 322.395 2.27295 327.765 2.27295C331.658 2.27295 336.871 3.56062 339.163 5.19322C339.075 7.15263 339.035 7.53305 338.178 9.08376C337.252 10.7562 335.584 12.541 335.584 12.541H334.877C334.877 12.541 334.789 9.67289 333.888 8.34899C332.555 6.38813 330.606 4.7222 327.624 4.7222C324.797 4.7222 322.568 5.93089 320.935 8.34899C319.303 10.7352 318.486 14.0953 318.486 18.4286C318.486 22.9815 319.381 26.4829 321.171 28.9322C322.992 31.3815 325.598 32.6061 328.989 32.6061C330.56 32.6061 332.192 32.3075 333.888 31.7112Z" fill="white"/>
<path d="M371.088 34.3489L382.675 16.0265H379.66C378.091 16.0265 376.646 16.1519 375.327 16.4033C374.04 16.6229 373.145 16.8432 372.642 17.0628L371.889 17.4396L371.323 16.8744V13.2476H391.577V14.6135L379.99 32.9359H383.334C384.904 32.9359 386.333 32.8257 387.62 32.6061C388.939 32.3547 389.85 32.104 390.352 31.8525L391.106 31.5228L391.671 32.088V35.7148H371.088V34.3489Z" fill="white"/>
<path d="M415.463 30.4866L416.546 31.57C416.483 31.6953 416.373 31.8685 416.216 32.0881C416.059 32.2765 415.698 32.6373 415.133 33.1714C414.599 33.7054 413.987 34.1765 413.296 34.5844C412.605 34.9924 411.663 35.3692 410.47 35.7149C409.276 36.0286 408.005 36.1859 406.655 36.1859C402.949 36.1859 399.982 35.1185 397.753 32.983C395.554 30.8163 394.456 27.9591 394.456 24.4106C394.456 20.8309 395.586 18.0048 397.847 15.9324C400.108 13.8288 403.279 12.7766 407.361 12.7766C413.547 12.7766 416.64 15.2259 416.64 20.1244C416.64 20.7207 416.593 21.3178 416.499 21.9142C416.436 22.4794 416.358 22.9033 416.263 23.186L416.122 23.657L415.557 24.2222H402.227C402.321 27.1425 402.934 29.262 404.064 30.5808C405.226 31.8997 406.905 32.5591 409.104 32.5591C410.297 32.5591 411.412 32.3866 412.448 32.041C413.516 31.6953 414.285 31.3504 414.756 31.0047L415.463 30.4866ZM407.173 15.0375C405.791 15.0375 404.661 15.6186 403.782 16.7802C402.934 17.9418 402.431 19.6534 402.274 21.9142L410.14 21.4432C410.297 20.7208 410.376 19.9519 410.376 19.1353C410.376 16.4034 409.308 15.0375 407.173 15.0375Z" fill="white"/>
<path d="M418.854 15.8381V14.0482L422.998 12.2584L424.553 6.74756H429.357V13.2475H435.527V15.8381H429.357V29.2619C429.357 31.4597 430.377 32.559 432.419 32.559C432.921 32.559 433.392 32.4959 433.832 32.3706C434.272 32.2133 434.585 32.072 434.774 31.9467L435.056 31.7112L436.093 32.7474C436.029 32.8416 435.935 32.9669 435.81 33.1242C435.685 33.2814 435.402 33.564 434.962 33.972C434.522 34.3488 434.036 34.6945 433.502 35.0082C433 35.2908 432.308 35.5575 431.43 35.809C430.582 36.0604 429.687 36.1858 428.745 36.1858C426.703 36.1858 425.134 35.6677 424.035 34.6314C422.935 33.5952 422.386 32.1039 422.386 30.1568V15.8381H418.854Z" fill="white"/>
<path d="M234.653 12.7766C241.153 12.7766 244.403 15.0063 244.403 19.465V30.9576C244.403 32.2765 244.937 32.9359 246.004 32.9359C246.224 32.9359 246.428 32.9047 246.616 32.8417C246.805 32.7787 246.931 32.7315 246.993 32.7004L247.135 32.6062L248.218 33.6895C248.061 33.8779 247.841 34.1134 247.558 34.396C247.276 34.6786 246.616 35.0554 245.58 35.5265C244.544 35.9663 243.414 36.1859 242.189 36.1859C239.614 36.1859 238.076 35.2439 237.573 33.3598C235.406 35.2439 232.832 36.1859 229.848 36.1859C227.808 36.1859 226.254 35.6678 225.185 34.6315C224.118 33.5953 223.584 32.1192 223.584 30.204C223.584 28.3511 224.346 27.0483 225.609 25.9649C228.526 23.4642 230.678 23.1309 232.928 22.6548C233.74 22.4831 234.9 22.057 235.84 21.6816C236.793 21.3258 237.425 20.415 237.425 19.3969C237.432 18.7461 237.432 18.1461 237.432 18.1461C237.432 16.0737 236.427 15.0375 234.417 15.0375C233.319 15.0375 232.509 15.4099 231.827 15.9795C231.101 16.5853 230.303 17.4556 229.801 18.1461C229.369 18.7418 228.817 20.1244 228.817 20.1244H228.252C228.252 20.1244 227.742 19.844 227.543 19.6374C227.023 19.099 226.044 17.7976 225.748 16.8744C225.552 16.2635 225.52 15.4143 225.52 15.4143C225.52 15.4143 225.909 15.0367 226.35 14.7534C228.08 13.6397 231.45 12.7766 234.653 12.7766ZM230.79 29.3091C230.79 31.3816 231.796 32.4178 233.805 32.4178C234.433 32.4178 235.045 32.3076 235.642 32.0881C236.27 31.8685 236.725 31.6642 237.008 31.4758L237.432 31.1461V23.4613C237.432 23.4613 234.786 24.678 233.805 25.2838C233.001 25.7801 232.078 26.5613 231.544 27.0954C231.042 27.5975 230.79 28.3359 230.79 29.3091Z" fill="white"/>
<path d="M283.819 12.7766C290.319 12.7766 293.569 15.0063 293.569 19.465V30.9576C293.569 32.2765 294.103 32.9359 295.17 32.9359C295.39 32.9359 295.594 32.9047 295.782 32.8417C295.971 32.7787 296.097 32.7315 296.159 32.7004L296.301 32.6062L297.384 33.6895C297.227 33.8779 297.007 34.1134 296.724 34.396C296.442 34.6786 295.782 35.0554 294.746 35.5265C293.71 35.9663 292.58 36.1859 291.355 36.1859C288.78 36.1859 287.242 35.2439 286.739 33.3598C284.572 35.2439 281.998 36.1859 279.014 36.1859C276.974 36.1859 275.42 35.6678 274.351 34.6315C273.284 33.5953 272.75 32.1192 272.75 30.204C272.75 28.3511 273.512 27.0483 274.775 25.9649C277.692 23.4642 279.844 23.1309 282.094 22.6548C282.906 22.4831 284.066 22.057 285.006 21.6816C285.959 21.3258 286.591 20.415 286.591 19.3969C286.598 18.7461 286.598 18.1461 286.598 18.1461C286.598 16.0737 285.593 15.0375 283.583 15.0375C282.485 15.0375 281.675 15.4099 280.993 15.9795C280.267 16.5853 279.469 17.4556 278.967 18.1461C278.535 18.7418 277.983 20.1244 277.983 20.1244H277.418C277.418 20.1244 276.908 19.844 276.709 19.6374C276.189 19.099 275.21 17.7976 274.914 16.8744C274.718 16.2635 274.686 15.4143 274.686 15.4143C274.686 15.4143 275.075 15.0367 275.516 14.7534C277.246 13.6397 280.616 12.7766 283.819 12.7766ZM279.956 29.3091C279.956 31.3816 280.962 32.4178 282.971 32.4178C283.599 32.4178 284.211 32.3076 284.808 32.0881C285.436 31.8685 285.891 31.6642 286.174 31.4758L286.598 31.1461V23.4613C286.598 23.4613 283.952 24.678 282.971 25.2838C282.167 25.7801 281.244 26.5613 280.71 27.0954C280.208 27.5975 279.956 28.3359 279.956 29.3091Z" fill="white"/>
<path d="M449.73 12.7766C456.23 12.7766 459.48 15.0063 459.48 19.465V30.9576C459.48 32.2765 460.014 32.9359 461.082 32.9359C461.302 32.9359 461.506 32.9047 461.694 32.8417C461.882 32.7787 462.009 32.7315 462.071 32.7004L462.212 32.6062L463.296 33.6895C463.139 33.8779 462.919 34.1134 462.636 34.396C462.353 34.6786 461.694 35.0554 460.658 35.5265C459.622 35.9663 458.491 36.1859 457.267 36.1859C454.692 36.1859 453.154 35.2439 452.651 33.3598C450.484 35.2439 447.909 36.1859 444.926 36.1859C442.885 36.1859 441.331 35.6678 440.263 34.6315C439.196 33.5953 438.662 32.1192 438.662 30.204C438.662 28.3511 439.423 27.0483 440.687 25.9649C443.604 23.4642 445.756 23.1309 448.006 22.6548C448.817 22.4831 449.977 22.057 450.917 21.6816C451.871 21.3258 452.503 20.415 452.503 19.3969C452.509 18.7461 452.509 18.1461 452.509 18.1461C452.509 16.0737 451.505 15.0375 449.495 15.0375C448.396 15.0375 447.586 15.4099 446.904 15.9795C446.178 16.5853 445.38 17.4556 444.879 18.1461C444.446 18.7418 443.895 20.1244 443.895 20.1244H443.33C443.33 20.1244 442.82 19.844 442.62 19.6374C442.101 19.099 441.122 17.7976 440.826 16.8744C440.63 16.2635 440.598 15.4143 440.598 15.4143C440.598 15.4143 440.986 15.0367 441.428 14.7534C443.157 13.6397 446.527 12.7766 449.73 12.7766ZM445.868 29.3091C445.868 31.3816 446.873 32.4178 448.883 32.4178C449.511 32.4178 450.123 32.3076 450.719 32.0881C451.348 31.8685 451.803 31.6642 452.085 31.4758L452.509 31.1461V23.4613C452.509 23.4613 449.864 24.678 448.883 25.2838C448.079 25.7801 447.156 26.5613 446.622 27.0954C446.12 27.5975 445.868 28.3359 445.868 29.3091Z" fill="white"/>
<path d="M355.798 12.7766C362.298 12.7766 365.548 15.0063 365.548 19.465V30.9576C365.548 32.2765 366.082 32.9359 367.149 32.9359C367.369 32.9359 367.573 32.9047 367.761 32.8417C367.95 32.7787 368.076 32.7315 368.138 32.7004L368.28 32.6062L369.363 33.6895C369.206 33.8779 368.986 34.1134 368.703 34.396C368.421 34.6786 367.761 35.0554 366.725 35.5265C365.689 35.9663 364.559 36.1859 363.334 36.1859C360.759 36.1859 359.221 35.2439 358.718 33.3598C356.551 35.2439 353.977 36.1859 350.993 36.1859C348.953 36.1859 347.399 35.6678 346.33 34.6315C345.263 33.5953 344.729 32.1192 344.729 30.204C344.729 28.3511 345.491 27.0483 346.754 25.9649C349.671 23.4642 351.823 23.1309 354.073 22.6548C354.885 22.4831 356.045 22.057 356.985 21.6816C357.938 21.3258 358.57 20.415 358.57 19.3969C358.577 18.7461 358.577 18.1461 358.577 18.1461C358.577 16.0737 357.572 15.0375 355.562 15.0375C354.464 15.0375 353.654 15.4099 352.972 15.9795C352.246 16.5853 351.448 17.4556 350.946 18.1461C350.514 18.7418 349.962 20.1244 349.962 20.1244H349.397C349.397 20.1244 348.887 19.844 348.688 19.6374C348.168 19.099 347.189 17.7976 346.893 16.8744C346.697 16.2635 346.665 15.4143 346.665 15.4143C346.665 15.4143 347.054 15.0367 347.495 14.7534C349.225 13.6397 352.595 12.7766 355.798 12.7766ZM351.935 29.3091C351.935 31.3816 352.941 32.4178 354.95 32.4178C355.578 32.4178 356.19 32.3076 356.787 32.0881C357.415 31.8685 357.87 31.6642 358.153 31.4758L358.577 31.1461V23.4613C358.577 23.4613 355.931 24.678 354.95 25.2838C354.146 25.7801 353.223 26.5613 352.689 27.0954C352.187 27.5975 351.935 28.3359 351.935 29.3091Z" fill="white"/>
<path d="M48.0557 7.38356L48.0702 7.37414C49.9897 6.39806 50.739 4.04735 49.7579 2.12563C48.7629 0.208247 46.4122 -0.557696 44.4978 0.435051C42.5782 1.41113 41.8152 3.7662 42.8101 5.68358C43.7905 7.60603 46.1361 8.35964 48.0557 7.38356Z" fill="#FDFBFF"/>
<path d="M69.4426 13.1682L69.4564 13.1588C71.3767 12.182 72.1252 9.83202 71.1448 7.91029C70.1499 5.99291 67.7992 5.22697 65.8847 6.21972C63.9644 7.1958 63.2014 9.55086 64.1963 11.4682C65.1774 13.39 67.5231 14.1443 69.4426 13.1682Z" fill="#FDFBFF"/>
<path d="M84.6443 28.3703L84.6581 28.3609C86.5776 27.3848 87.3269 25.0341 86.3457 23.1124C85.3508 21.195 83.0008 20.4298 81.0856 21.4225C79.1661 22.3986 78.4031 24.7536 79.398 26.671C80.3784 28.5927 82.724 29.3464 84.6443 28.3703Z" fill="#FDFBFF"/>
<path d="M90.429 49.7558L90.4427 49.7464C92.3623 48.7703 93.1116 46.4203 92.1311 44.4979C91.1362 42.5805 88.7855 41.8153 86.8703 42.808C84.9508 43.7841 84.1877 46.1392 85.1826 48.0565C86.1638 49.9783 88.5094 50.7319 90.429 49.7558Z" fill="#FDFBFF"/>
<path d="M84.6443 71.1432L84.6581 71.1338C86.5776 70.1577 87.3269 67.807 86.3457 65.8853C85.3508 63.9679 83.0008 63.2027 81.0856 64.1947C79.1661 65.1715 78.4031 67.5266 79.398 69.4432C80.3784 71.3657 82.724 72.1193 84.6443 71.1432Z" fill="#FDFBFF"/>
<path d="M69.4426 86.3433L69.4564 86.3346C71.3767 85.3578 72.1252 83.0078 71.1448 81.0854C70.1499 79.1687 67.7992 78.4028 65.8847 79.3955C63.9644 80.3716 63.2014 82.7267 64.1963 84.644C65.1774 86.5658 67.5231 87.3201 69.4426 86.3433Z" fill="#FDFBFF"/>
<path d="M48.0557 92.1279L48.0702 92.1185C49.9897 91.1424 50.739 88.7924 49.7579 86.8699C48.7629 84.9525 46.4122 84.1873 44.4978 85.1801C42.5782 86.1562 41.8152 88.5112 42.8101 90.4286C43.7905 92.3503 46.1361 93.1047 48.0557 92.1279Z" fill="#FDFBFF"/>
<path d="M26.6692 86.3433L26.683 86.3346C28.6025 85.3578 29.3518 83.0078 28.3707 81.0854C27.3757 79.1687 25.0257 78.4028 23.1105 79.3955C21.191 80.3716 20.428 82.7267 21.4229 84.644C22.4033 86.5658 24.7497 87.3201 26.6692 86.3433Z" fill="#FDFBFF"/>
<path d="M11.468 71.1432L11.4825 71.1338C13.4021 70.1577 14.1513 67.807 13.1702 65.8853C12.1753 63.9679 9.82456 63.2027 7.91008 64.1947C5.9898 65.1715 5.22676 67.5266 6.22168 69.4432C7.20284 71.3657 9.54847 72.1193 11.468 71.1432Z" fill="#FDFBFF"/>
<path d="M5.68337 49.7558L5.69714 49.7464C7.61669 48.7703 8.36596 46.4203 7.38481 44.4979C6.38989 42.5805 4.03991 41.8153 2.1247 42.808C0.205152 43.7841 -0.557886 46.1392 0.437034 48.0565C1.41746 49.9783 3.76382 50.7319 5.68337 49.7558Z" fill="#FDFBFF"/>
<path d="M11.468 28.3703L11.4825 28.3609C13.4021 27.3848 14.1513 25.0341 13.1702 23.1124C12.1753 21.195 9.82456 20.4298 7.91008 21.4225C5.9898 22.3986 5.22676 24.7536 6.22168 26.671C7.20284 28.5927 9.54847 29.3464 11.468 28.3703Z" fill="#FDFBFF"/>
<path d="M26.6692 13.1682L26.683 13.1588C28.6025 12.182 29.3518 9.83202 28.3707 7.91029C27.3757 5.99291 25.0257 5.22697 23.1105 6.21972C21.191 7.1958 20.428 9.55086 21.4229 11.4682C22.4033 13.39 24.7497 14.1443 26.6692 13.1682Z" fill="#FDFBFF"/>
<path d="M48.0557 7.38356L48.0702 7.37414C49.9897 6.39806 50.739 4.04735 49.7579 2.12563C48.7629 0.208247 46.4122 -0.557696 44.4978 0.435051C42.5782 1.41113 41.8152 3.7662 42.8101 5.68358C43.7905 7.60603 46.1361 8.35964 48.0557 7.38356Z" fill="#FDFBFF"/>
<path d="M29.1077 30.25V63.3432H21.6143V30.25H29.1077ZM42.3888 30.25V42.2456H32.4388V50.06H42.3888V74.3692H50.2025V30.25H42.3888Z" fill="#FDFBFF"/>
</svg>
