<svg width="400" height="400" viewBox="0 0 400 400" fill="none" xmlns="http://www.w3.org/2000/svg">
  <rect width="400" height="400" fill="#F3F4F6"/>
  <path d="M200 150C183.431 150 170 163.431 170 180C170 196.569 183.431 210 200 210C216.569 210 230 196.569 230 180C230 163.431 216.569 150 200 150ZM160 180C160 157.909 177.909 140 200 140C222.091 140 240 157.909 240 180C240 202.091 222.091 220 200 220C177.909 220 160 202.091 160 180Z" fill="#9CA3AF"/>
  <path d="M159.978 250C148.954 250 140 258.954 140 269.978C140 281.002 148.954 289.956 159.978 289.956H240.022C251.046 289.956 260 281.002 260 269.978C260 258.954 251.046 250 240.022 250H159.978Z" fill="#9CA3AF"/>
</svg> 