<svg width="252" height="188" viewBox="0 0 252 188" fill="none" xmlns="http://www.w3.org/2000/svg">
<path d="M105.09 80.4159C162.709 64.539 161.367 40.4105 158.508 30.2528C155.562 19.8961 153.111 -11.5162 86.3318 10.8763C23.5493 31.9315 8.14545 41.6624 0.997834 72.3065C-6.29567 103.491 47.5012 96.2642 105.09 80.4159Z" fill="#307FE2"/>
<path d="M117.301 116.76C63.2419 125.902 61.3551 148.917 62.6707 158.848C64.0167 168.971 62.2552 198.992 125.431 184.589C184.822 171.046 199.975 163.394 210.335 135.052C220.856 106.236 171.36 107.618 117.301 116.76Z" fill="#FFD400"/>
<path fill-rule="evenodd" clip-rule="evenodd" d="M14.9845 21.6319C19.1326 19.6308 24.6983 19.1914 29.2538 21.9058C37.5446 26.8467 39.362 37.3992 37.9381 45.1983L37.9325 45.2291L37.9264 45.2599C37.1481 49.1976 35.7155 52.8397 34.1976 56.1976C33.5067 57.7264 32.7773 59.2401 32.0748 60.6978C32.006 60.8408 31.9375 60.9829 31.8692 61.1246C31.0948 62.7332 30.3558 64.2789 29.6765 65.8241L29.6523 65.8792C28.3256 68.7877 27.3031 71.6486 26.7649 74.3937C33.6071 68.7097 42.7563 65.0563 52.5562 64.8942L52.5696 64.8938C68.0023 64.6853 83.9026 76.4681 85.7742 93.1003L120.878 97.6542C122.115 94.7318 123.831 92.01 125.91 89.573C133.271 80.9466 145.346 75.6162 157.429 76.9309C168.666 78.1594 179.25 85.1681 184.566 95.2041C187.722 92.2124 190.703 89.4356 193.717 86.628C197.073 83.5024 200.468 80.3391 204.19 76.8C208.618 72.4871 214.068 67.3607 220.998 65.0125C227.955 62.6556 238.003 63.6371 242.917 71.1962C245.589 75.3055 245.405 80.4023 243.719 84.2733C242.028 88.1594 238.269 91.9173 232.828 91.8016C230.436 91.7509 228.538 89.7701 228.588 87.3773C228.639 84.9848 230.62 83.086 233.013 83.1371C233.858 83.1549 234.997 82.5967 235.773 80.8136C236.556 79.0152 236.412 77.0899 235.651 75.9204C233.702 72.9221 228.597 71.5888 223.78 73.2211C218.945 74.8587 214.776 78.5867 210.22 83.0257L210.182 83.0621C206.274 86.7793 202.853 89.9634 199.51 93.0769C195.678 96.645 191.947 100.119 187.696 104.194C190.016 116.877 183.901 130.999 172.339 137.218C164.3 141.551 154.818 141.886 146.472 139.814L146.464 139.811C137.137 137.475 128.126 131.868 122.977 123.169C119.53 117.4 118.311 111.581 118.766 106.119L85.4618 101.799C83.4173 112.862 75.2992 122.456 65.4907 126.603C53.8566 131.521 40.6664 129.123 30.5914 122.683C22.715 117.666 17.8397 111.513 15.8284 104.815C13.8153 98.1109 14.8231 91.3579 17.7976 85.4632C17.9851 85.0919 18.1805 84.7235 18.3836 84.3582C16.4054 76.5136 18.9018 68.5702 21.7544 62.3098C22.4977 60.6202 23.2921 58.9606 24.0608 57.3646C24.1279 57.2251 24.1949 57.086 24.2616 56.9477C24.972 55.4731 25.6555 54.0544 26.3003 52.6278C27.7055 49.5191 28.8265 46.585 29.4179 43.611C30.5156 37.5448 28.648 31.6337 24.8172 29.3509C23.3087 28.4517 20.9073 28.3971 18.75 29.4376C16.5991 30.4754 15.9089 31.9288 16.0023 33.0533C16.2003 35.4384 14.4275 37.5322 12.0424 37.7303C9.65741 37.9283 7.56342 36.1555 7.36534 33.7705C6.87624 27.881 10.8299 23.6361 14.9845 21.6319ZM52.6935 73.5596C40.4623 73.7645 29.8566 80.804 25.5349 89.368C23.4129 93.5731 22.8425 98.0381 24.1289 102.323C25.4166 106.611 28.7168 111.215 35.2519 115.376L35.2579 115.38C43.4536 120.619 53.6373 122.205 62.1164 118.621C70.7124 114.987 77.4603 105.617 77.2887 96.0587L77.2882 96.0491C77.0902 83.4846 64.9928 73.3971 52.6935 73.5596ZM132.503 95.1985C127.044 101.596 125.253 110.089 130.422 118.732L130.432 118.749C134.156 125.044 140.971 129.5 148.565 131.404C155.357 133.089 162.527 132.662 168.231 129.588C176.824 124.965 181.448 113.545 178.754 103.948L178.74 103.9C176.147 94.2443 166.771 86.6718 156.492 85.5469M132.503 95.1985C138.113 88.624 147.425 84.561 156.492 85.5469L132.503 95.1985Z" fill="#1E1E1E"/>
</svg>
