<?xml version="1.0" encoding="UTF-8"?> <svg xmlns="http://www.w3.org/2000/svg" width="60" height="60" viewBox="0 0 60 60" fill="none"> <path d="M26.425 26.8652C39.7216 23.2013 39.4119 17.6332 38.7522 15.2891C38.0722 12.8991 37.5067 5.6501 22.0961 10.8176C7.60783 15.6765 4.0531 17.9221 2.40365 24.9938C0.720533 32.1903 13.1352 30.5225 26.425 26.8652Z" fill="#307FE2"></path> <path d="M29.2435 35.2523C16.7683 37.362 16.3329 42.6731 16.6365 44.965C16.9471 47.3011 16.5406 54.229 31.1196 50.9051C44.8252 47.7799 48.3221 46.0141 50.7128 39.4736C53.1407 32.8237 41.7187 33.1425 29.2435 35.2523Z" fill="#FFD400"></path> <path fill-rule="evenodd" clip-rule="evenodd" d="M5.63201 13.2384C6.58926 12.7766 7.87367 12.6752 8.92493 13.3016C10.8382 14.4418 11.2576 16.877 10.929 18.6768L10.9277 18.6839L10.9263 18.691C10.7467 19.5997 10.4161 20.4402 10.0658 21.2151C9.90638 21.5679 9.73804 21.9172 9.57594 22.2536C9.56006 22.2866 9.54424 22.3194 9.52849 22.3521C9.34977 22.7233 9.17924 23.08 9.02247 23.4366L9.01689 23.4493C8.71073 24.1205 8.47478 24.7807 8.35057 25.4142C9.92955 24.1025 12.0409 23.2594 14.3024 23.222L14.3055 23.2219C17.8669 23.1738 21.5362 25.8929 21.9681 29.7311L30.0689 30.782C30.3545 30.1076 30.7504 29.4795 31.2302 28.9171C32.9288 26.9264 35.7155 25.6963 38.5039 25.9997C41.0969 26.2832 43.5395 27.9006 44.7663 30.2166C45.4946 29.5262 46.1825 28.8854 46.878 28.2375C47.6524 27.5162 48.436 26.7862 49.2949 25.9695C50.3167 24.9742 51.5743 23.7912 53.1737 23.2493C54.7791 22.7054 57.0978 22.9319 58.2319 24.6763C58.8484 25.6246 58.806 26.8008 58.417 27.6941C58.0266 28.5909 57.1591 29.4581 55.9037 29.4314C55.3516 29.4197 54.9135 28.9626 54.9252 28.4104C54.9369 27.8583 55.394 27.4201 55.9462 27.4319C56.1413 27.436 56.4042 27.3072 56.5833 26.8957C56.764 26.4807 56.7306 26.0364 56.5551 25.7665C56.1053 25.0746 54.9271 24.7669 53.8155 25.1436C52.6999 25.5215 51.7378 26.3818 50.6863 27.4062L50.6777 27.4146C49.7757 28.2724 48.9864 29.0072 48.2148 29.7257C47.3306 30.5491 46.4695 31.3508 45.4885 32.2912C46.0239 35.2181 44.6128 38.477 41.9447 39.9122C40.0895 40.912 37.9012 40.9894 35.9754 40.5111L35.9735 40.5106C33.821 39.9715 31.7417 38.6774 30.5534 36.6701C29.758 35.3388 29.4767 33.9959 29.5817 32.7355L21.896 31.7385C21.4242 34.2916 19.5508 36.5056 17.2873 37.4625C14.6025 38.5975 11.5586 38.0441 9.23362 36.5579C7.41599 35.4002 6.29091 33.9802 5.82676 32.4345C5.3622 30.8874 5.59478 29.329 6.2812 27.9687C6.32446 27.883 6.36955 27.798 6.41643 27.7137C5.95992 25.9034 6.53601 24.0703 7.1943 22.6256C7.36583 22.2357 7.54916 21.8527 7.72654 21.4844C7.74204 21.4522 7.75749 21.4201 7.77288 21.3882C7.93682 21.0479 8.09455 20.7205 8.24335 20.3913C8.56763 19.6739 8.82633 18.9968 8.9628 18.3105C9.21612 16.9106 8.78514 15.5465 7.9011 15.0197C7.55298 14.8122 6.99882 14.7996 6.50097 15.0397C6.00461 15.2792 5.84533 15.6146 5.86689 15.8741C5.91259 16.4245 5.50347 16.9077 4.95308 16.9534C4.40269 16.9991 3.91946 16.59 3.87375 16.0396C3.76088 14.6805 4.67327 13.7009 5.63201 13.2384ZM14.3341 25.2217C11.5115 25.269 9.06404 26.8935 8.06673 28.8698C7.57703 29.8402 7.4454 30.8706 7.74226 31.8593C8.03943 32.8489 8.801 33.9113 10.3091 34.8716L10.3105 34.8726C12.2018 36.0816 14.5519 36.4476 16.5086 35.6204C18.4923 34.7818 20.0495 32.6195 20.0099 30.4138L20.0098 30.4116C19.9641 27.5121 17.1724 25.1842 14.3341 25.2217ZM32.7517 30.2153C31.492 31.6916 31.0786 33.6515 32.2714 35.646L32.2738 35.6501C33.1332 37.1028 34.7058 38.1311 36.4584 38.5703C38.0256 38.9593 39.6804 38.8607 40.9965 38.1513C42.9797 37.0845 44.0466 34.449 43.4249 32.2343L43.4218 32.2234C42.8234 29.9951 40.6597 28.2476 38.2875 27.988M32.7517 30.2153C34.0462 28.6981 36.1952 27.7605 38.2875 27.988Z" fill="#1E1E1E"></path> </svg> 